<svg xmlns="http://www.w3.org/2000/svg" width="31.126" height="27.318" viewBox="0 0 31.126 27.318"><g transform="translate(919.04 38.016)"><path d="M-598.316,151.462a6.1,6.1,0,0,1-.333.9,2.683,2.683,0,0,1-2.462,1.446c-.577.009-1.154.008-1.732,0a.923.923,0,0,1-1-1q0-5.392,0-10.785a.9.9,0,0,1,.962-.973c.628-.007,1.256-.015,1.883,0a2.7,2.7,0,0,1,2.629,2.189.829.829,0,0,0,.056.135Z" transform="translate(-289.598 -164.518)" fill="#e8e8e8"/><path d="M-822.292-38.016A13.542,13.542,0,0,1-814.47-35.6a.975.975,0,0,1,.306,1.588q-.9,1.354-1.794,2.707a.932.932,0,0,1-1.494.275,8.313,8.313,0,0,0-9.614-.016.948.948,0,0,1-1.536-.287q-.906-1.366-1.811-2.732a.941.941,0,0,1,.268-1.481A13.487,13.487,0,0,1-822.292-38.016Z" transform="translate(-81.202)" fill="#e8e8e8"/><path d="M-716.144,143.134c0-1.195,0-2.339.007-3.483a.337.337,0,0,1,.169-.238,3.612,3.612,0,0,1,2.3-.364.928.928,0,0,0,1.166-.736.937.937,0,0,0-.847-1.062,5.3,5.3,0,0,0-2.519.191c-.058.018-.116.036-.174.052a.523.523,0,0,1-.1,0c0-.51-.006-1.022.007-1.533a.285.285,0,0,1,.152-.188,3.636,3.636,0,0,1,2.294-.374.934.934,0,0,0,1.18-.717.951.951,0,0,0-.888-1.088,5.394,5.394,0,0,0-2.46.2c-.068.02-.135.042-.2.059a.26.26,0,0,1-.071,0v-3.632a4.855,4.855,0,0,1,3.082-.186,5.007,5.007,0,0,1,1.025.368,3.488,3.488,0,0,0,1.729.379c.162,0,.324,0,.486,0a.906.906,0,0,1,.959.98q0,3.449,0,6.9,0,1.914,0,3.829a.949.949,0,0,1-1.043,1.06,6.209,6.209,0,0,1-3.031-.6,3.234,3.234,0,0,0-2.9.039Z" transform="translate(-186.42 -154.247)" fill="#f8f9fa"/><path d="M-821.112,137.446c-.716-.088-1.394-.19-2.075-.245a2.878,2.878,0,0,0-.84.1.9.9,0,0,0-.723,1.034.888.888,0,0,0,1.049.738,3.894,3.894,0,0,1,1.8.11c.787.245.788.241.788,1.067v2.883c-.212-.089-.394-.17-.579-.243a3.192,3.192,0,0,0-2.708.094,5.984,5.984,0,0,1-3.065.569.91.91,0,0,1-.941-.973q0-5.408,0-10.816a.906.906,0,0,1,.966-.972c.223,0,.446,0,.668,0a3.21,3.21,0,0,0,1.435-.329,5.121,5.121,0,0,1,4.214-.234v3.629a11.059,11.059,0,0,0-1.351-.263,7.029,7.029,0,0,0-1.479.05.9.9,0,0,0-.79,1.066.911.911,0,0,0,1.125.714,3.827,3.827,0,0,1,2.248.311.364.364,0,0,1,.265.4C-821.125,136.588-821.112,137.044-821.112,137.446Z" transform="translate(-83.272 -154.26)" fill="#e8e8e8"/><path d="M-913.5,147.451q0,2.643,0,5.287a.948.948,0,0,1-1.083,1.077c-.638,0-1.278.023-1.913-.022a2.694,2.694,0,0,1-2.53-2.692q-.018-3.676,0-7.353a2.7,2.7,0,0,1,2.6-2.684c.647-.026,1.3-.016,1.944-.009a.905.905,0,0,1,.979.989Q-913.5,144.746-913.5,147.451Z" transform="translate(0 -164.522)" fill="#e8e8e8"/><path d="M-891.888,19.1l1.151,1.455c-.1.13-.2.257-.291.384a11.641,11.641,0,0,0-2.31,5.944c-.022.222-.083.317-.327.307-.5-.02-1.009-.006-1.57-.006A13.712,13.712,0,0,1-891.888,19.1Z" transform="translate(-21.872 -52.476)" fill="#f8f9fa"/><path d="M-610.341,27.2c-.6,0-1.147,0-1.692,0-.2,0-.193-.138-.2-.267a11.189,11.189,0,0,0-1.284-4.332c-.33-.612-.742-1.179-1.119-1.765-.059-.092-.131-.176-.2-.271l1.15-1.453A13.769,13.769,0,0,1-610.341,27.2Z" transform="translate(-279.495 -52.495)" fill="#f8f9fa"/></g></svg>