<svg xmlns="http://www.w3.org/2000/svg" xmlns:xlink="http://www.w3.org/1999/xlink" viewBox="0 0 183.33 47.82"><defs><style>.cls-1{isolation:isolate;}.cls-2{fill:#f9b233;}.cls-3{fill:#e94e1b;}.cls-4{fill:#95c11f;}.cls-5{fill:#1d71b8;}.cls-6{opacity:0.3;mix-blend-mode:multiply;}.cls-7{fill:url(#Gradiente_sem_nome);}.cls-8{fill:url(#Gradiente_sem_nome-2);}.cls-9{fill:url(#Gradiente_sem_nome-3);}.cls-10{fill:url(#Gradiente_sem_nome-4);}.cls-11{fill:#cde3e8;}</style><linearGradient id="Gradiente_sem_nome" x1="17.53" y1="11.95" x2="0.21" y2="19.59" gradientUnits="userSpaceOnUse"><stop offset="0" stop-color="#fff"/><stop offset="1"/></linearGradient><linearGradient id="Gradiente_sem_nome-2" x1="14.22" y1="32.7" x2="18.67" y2="48.57" xlink:href="#Gradiente_sem_nome"/><linearGradient id="Gradiente_sem_nome-3" x1="31.95" y1="14.44" x2="47.14" y2="24.12" xlink:href="#Gradiente_sem_nome"/><linearGradient id="Gradiente_sem_nome-4" x1="36.72" y1="28.59" x2="29.95" y2="38.75" xlink:href="#Gradiente_sem_nome"/></defs><g class="cls-1"><g id="Camada_2" data-name="Camada 2"><g id="Camada_1-2" data-name="Camada 1"><polygon class="cls-2" points="11.96 23.66 23.66 11.96 23.66 0 0 23.66 11.96 23.66"/><polygon class="cls-3" points="0 24.16 6.31 30.47 16.59 30.49 16.52 40.69 23.66 47.82 23.66 24.16 0 24.16"/><polygon class="cls-4" points="31.41 23.66 47.93 23.66 24.27 0 24.27 11.96 31.41 11.96 31.41 23.66"/><polygon class="cls-5" points="31.41 24.16 31.41 40.69 47.93 24.16 31.41 24.16"/><g class="cls-6"><polygon class="cls-7" points="11.96 23.66 23.66 11.96 23.66 0 0 23.66 11.96 23.66"/><polygon class="cls-8" points="0 24.16 6.31 30.47 16.59 30.49 16.52 40.69 23.66 47.82 23.66 24.16 0 24.16"/><polygon class="cls-9" points="31.41 23.66 47.93 23.66 24.27 0 24.27 11.96 31.41 11.96 31.41 23.66"/><polygon class="cls-10" points="31.41 24.16 31.41 40.69 47.93 24.16 31.41 24.16"/></g><path class="cls-11" d="M64.06,27.73V35.8H58.33V12h9.49a11,11,0,0,1,4.82,1,7.56,7.56,0,0,1,3.25,2.86A7.8,7.8,0,0,1,77,20.09a6.88,6.88,0,0,1-2.49,5.56,10.32,10.32,0,0,1-6.83,2.08Zm0-4.42h3.76a3.54,3.54,0,0,0,2.54-.84,3.09,3.09,0,0,0,.87-2.35,3.81,3.81,0,0,0-.9-2.66,3.15,3.15,0,0,0-2.45-1H64.06Z"/><path class="cls-11" d="M88.93,27.39h-3.1V35.8H80.1V12h9.36a10.38,10.38,0,0,1,6.61,1.88,6.35,6.35,0,0,1,2.39,5.3,7.73,7.73,0,0,1-1,4.11A7.11,7.11,0,0,1,94.31,26l5,9.61v.24H93.13ZM85.83,23h3.63a3.27,3.27,0,0,0,2.46-.86,3.31,3.31,0,0,0,.82-2.4,3.36,3.36,0,0,0-.83-2.41,3.21,3.21,0,0,0-2.45-.88H85.83Z"/><path class="cls-11" d="M108,35.8h-5.72V12H108Z"/><path class="cls-11" d="M124.28,29.48a2.37,2.37,0,0,0-.89-2,11,11,0,0,0-3.13-1.45,29.8,29.8,0,0,1-3.66-1.46Q112,22.35,112,18.37a5.62,5.62,0,0,1,1.15-3.48,7.48,7.48,0,0,1,3.26-2.36,12.71,12.71,0,0,1,4.74-.84,11.11,11.11,0,0,1,4.6.92,7.34,7.34,0,0,1,3.16,2.6A6.83,6.83,0,0,1,130,19.08H124.3a2.89,2.89,0,0,0-.89-2.26A3.5,3.5,0,0,0,121,16a3.94,3.94,0,0,0-2.43.68,2.09,2.09,0,0,0-.89,1.72,2.11,2.11,0,0,0,1,1.66,12.31,12.31,0,0,0,3.45,1.54,20.82,20.82,0,0,1,4,1.7Q130,25.54,130,29.45a5.8,5.8,0,0,1-2.35,4.9,10.51,10.51,0,0,1-6.45,1.78,12.78,12.78,0,0,1-5.23-1,7.87,7.87,0,0,1-3.53-2.84,7.4,7.4,0,0,1-1.19-4.16H117a3.65,3.65,0,0,0,1,2.82,4.7,4.7,0,0,0,3.21.91,3.69,3.69,0,0,0,2.25-.62A2,2,0,0,0,124.28,29.48Z"/><path class="cls-11" d="M140.48,12l5.31,16.55L151.08,12h7.55V35.8h-5.75V30.25l.56-11.37L147.69,35.8H143.9l-5.77-16.94.56,11.39V35.8H133V12Z"/><path class="cls-11" d="M175.78,31.36h-7.86l-1.37,4.44h-6.12L169.15,12h5.39l8.79,23.78h-6.16Zm-6.48-4.43h5.11l-2.57-8.25Z"/></g></g></g></svg>