<svg xmlns="http://www.w3.org/2000/svg" xmlns:xlink="http://www.w3.org/1999/xlink" viewBox="0 0 128.7 47.82"><defs><style>.cls-1{isolation:isolate;}.cls-2{fill:#384e55;}.cls-3{fill:#8b9aa0;}.cls-4{fill:#f9b233;}.cls-5{fill:#e94e1b;}.cls-6{fill:#95c11f;}.cls-7{fill:#1d71b8;}.cls-8{opacity:0.3;mix-blend-mode:multiply;}.cls-9{fill:url(#Gradiente_sem_nome);}.cls-10{fill:url(#Gradiente_sem_nome-2);}.cls-11{fill:url(#Gradiente_sem_nome-3);}.cls-12{fill:url(#Gradiente_sem_nome-4);}</style><linearGradient id="Gradiente_sem_nome" x1="17.53" y1="11.95" x2="0.21" y2="19.59" gradientUnits="userSpaceOnUse"><stop offset="0" stop-color="#fff"/><stop offset="1"/></linearGradient><linearGradient id="Gradiente_sem_nome-2" x1="14.22" y1="32.7" x2="18.67" y2="48.57" xlink:href="#Gradiente_sem_nome"/><linearGradient id="Gradiente_sem_nome-3" x1="31.95" y1="14.44" x2="47.14" y2="24.12" xlink:href="#Gradiente_sem_nome"/><linearGradient id="Gradiente_sem_nome-4" x1="36.72" y1="28.59" x2="29.95" y2="38.75" xlink:href="#Gradiente_sem_nome"/></defs><g class="cls-1"><g id="Camada_2" data-name="Camada 2"><g id="Camada_1-2" data-name="Camada 1"><path class="cls-2" d="M61.58,18.7V23h-3V10.43h5a5.9,5.9,0,0,1,2.55.52,4,4,0,0,1,2.31,3.73,3.62,3.62,0,0,1-1.31,2.93,5.43,5.43,0,0,1-3.6,1.09Zm0-2.33h2a1.88,1.88,0,0,0,1.34-.44,1.61,1.61,0,0,0,.46-1.24,2,2,0,0,0-.47-1.4,1.67,1.67,0,0,0-1.29-.53h-2Z"/><path class="cls-2" d="M74.69,18.52H73.05V23H70V10.43H75a5.51,5.51,0,0,1,3.49,1,3.34,3.34,0,0,1,1.25,2.8,4.07,4.07,0,0,1-.52,2.16,3.81,3.81,0,0,1-1.66,1.4l2.61,5.05V23H76.9ZM73.05,16.2H75a1.72,1.72,0,0,0,1.3-.45,1.78,1.78,0,0,0,.43-1.27,1.74,1.74,0,0,0-.44-1.27A1.68,1.68,0,0,0,75,12.75H73.05Z"/><path class="cls-2" d="M84.75,23h-3V10.43h3Z"/><path class="cls-2" d="M93.31,19.62a1.25,1.25,0,0,0-.47-1,5.82,5.82,0,0,0-1.65-.77,14.67,14.67,0,0,1-1.93-.76c-1.62-.8-2.43-1.89-2.43-3.29a3,3,0,0,1,.6-1.83,3.85,3.85,0,0,1,1.72-1.24,6.59,6.59,0,0,1,2.5-.45,5.72,5.72,0,0,1,2.42.49,3.76,3.76,0,0,1,1.66,1.37,3.54,3.54,0,0,1,.6,2h-3A1.54,1.54,0,0,0,92.85,13a1.85,1.85,0,0,0-1.27-.42,2,2,0,0,0-1.28.36,1.11,1.11,0,0,0-.47.91,1.09,1.09,0,0,0,.52.87,6.56,6.56,0,0,0,1.81.81,11.38,11.38,0,0,1,2.14.9,3.59,3.59,0,0,1,2,3.23,3.09,3.09,0,0,1-1.24,2.58,5.56,5.56,0,0,1-3.4.93,6.8,6.8,0,0,1-2.76-.54,4.27,4.27,0,0,1-1.86-1.5,3.93,3.93,0,0,1-.62-2.19h3A1.93,1.93,0,0,0,90,20.38a2.51,2.51,0,0,0,1.69.47,1.9,1.9,0,0,0,1.18-.32A1.07,1.07,0,0,0,93.31,19.62Z"/><path class="cls-2" d="M101.84,10.43l2.8,8.71,2.79-8.71h4V23h-3V20l.3-6-3,8.91h-2l-3-8.92.3,6V23h-3V10.43Z"/><path class="cls-2" d="M120.44,20.61H116.3L115.57,23h-3.22l4.59-12.52h2.84L124.41,23h-3.24ZM117,18.28h2.69l-1.35-4.34Z"/><path class="cls-3" d="M58.71,28.23v1.71h-.58V25.56h1.61a1.6,1.6,0,0,1,1.13.37,1.25,1.25,0,0,1,.41,1,1.2,1.2,0,0,1-.4,1,1.71,1.71,0,0,1-1.14.35Zm0-.47h1a1.06,1.06,0,0,0,.71-.22.92.92,0,0,0,0-1.26,1,1,0,0,0-.67-.25H58.71Z"/><path class="cls-3" d="M63.62,28.17h-1v1.77H62V25.56h1.46a1.66,1.66,0,0,1,1.13.34,1.19,1.19,0,0,1,.4,1,1.15,1.15,0,0,1-.22.71,1.29,1.29,0,0,1-.61.46l1,1.86v0h-.62Zm-1-.47h.88a1.06,1.06,0,0,0,.69-.22.76.76,0,0,0,.25-.6.82.82,0,0,0-.24-.63,1.08,1.08,0,0,0-.7-.22H62.6Z"/><path class="cls-3" d="M66.43,29.94h-.57V25.56h.57Z"/><path class="cls-3" d="M68.24,25.56l1.43,3.58,1.43-3.58h.75v4.38h-.57v-1.7l0-1.84-1.44,3.54h-.44L68,26.4l.06,1.84v1.7h-.58V25.56Z"/><path class="cls-3" d="M75.35,27.92h-1.9v1.55h2.21v.47H72.87V25.56h2.76V26H73.45v1.42h1.9Z"/><path class="cls-3" d="M77,29.94h-.58V25.56H77Z"/><path class="cls-3" d="M79.66,28.17h-1v1.77h-.58V25.56H79.5a1.67,1.67,0,0,1,1.14.34,1.19,1.19,0,0,1,.4,1,1.15,1.15,0,0,1-.22.71,1.29,1.29,0,0,1-.61.46l1,1.86v0h-.62Zm-1-.47h.89a1.06,1.06,0,0,0,.69-.22.76.76,0,0,0,.25-.6.82.82,0,0,0-.24-.63,1.1,1.1,0,0,0-.7-.22h-.89Z"/><path class="cls-3" d="M85.23,27.89A2.81,2.81,0,0,1,85,29a1.64,1.64,0,0,1-1.54,1,1.68,1.68,0,0,1-.92-.26,1.59,1.59,0,0,1-.62-.73,2.47,2.47,0,0,1-.23-1.09v-.31a2.63,2.63,0,0,1,.22-1.12,1.68,1.68,0,0,1,.62-.74,1.78,1.78,0,0,1,1.85,0,1.6,1.6,0,0,1,.62.73,2.81,2.81,0,0,1,.22,1.13Zm-.58-.28a2,2,0,0,0-.31-1.2,1.05,1.05,0,0,0-.88-.41,1,1,0,0,0-.86.41,1.9,1.9,0,0,0-.32,1.16v.32a2,2,0,0,0,.31,1.19,1,1,0,0,0,.88.43,1,1,0,0,0,.86-.4,2,2,0,0,0,.32-1.17Z"/><path class="cls-3" d="M88.91,28a2.78,2.78,0,0,1-1.08-.52,1,1,0,0,1-.34-.77,1.08,1.08,0,0,1,.41-.86A1.64,1.64,0,0,1,89,25.5a1.79,1.79,0,0,1,.81.18,1.26,1.26,0,0,1,.54.48,1.22,1.22,0,0,1,.2.67H90a.8.8,0,0,0-.26-.63A1,1,0,0,0,89,26a1.11,1.11,0,0,0-.67.19.64.64,0,0,0-.24.53.57.57,0,0,0,.23.45,2.23,2.23,0,0,0,.78.34,3.32,3.32,0,0,1,.85.34,1.28,1.28,0,0,1,.46.43,1.09,1.09,0,0,1,.15.58,1,1,0,0,1-.42.85A1.75,1.75,0,0,1,89,30a2,2,0,0,1-.84-.18,1.45,1.45,0,0,1-.61-.47,1.17,1.17,0,0,1-.21-.69h.58a.74.74,0,0,0,.3.63,1.17,1.17,0,0,0,.78.23,1.15,1.15,0,0,0,.7-.18.63.63,0,0,0,.25-.51.6.6,0,0,0-.23-.5A2.62,2.62,0,0,0,88.91,28Z"/><path class="cls-3" d="M94.65,27.89A2.65,2.65,0,0,1,94.43,29a1.64,1.64,0,0,1-.61.73A1.69,1.69,0,0,1,91.35,29a2.61,2.61,0,0,1-.23-1.09v-.31a2.8,2.8,0,0,1,.22-1.12,1.7,1.7,0,0,1,.63-.74,1.76,1.76,0,0,1,1.84,0,1.55,1.55,0,0,1,.62.73,2.65,2.65,0,0,1,.22,1.13Zm-.57-.28a2,2,0,0,0-.32-1.2,1.13,1.13,0,0,0-1.74,0,2,2,0,0,0-.32,1.16v.32A2,2,0,0,0,92,29.08a1,1,0,0,0,.87.43,1,1,0,0,0,.87-.4,2.06,2.06,0,0,0,.32-1.17Z"/><path class="cls-3" d="M97.94,28H96.1v1.93h-.58V25.56h2.71V26H96.1v1.51h1.84Z"/><path class="cls-3" d="M102,26h-1.4v3.91H100V26H98.62v-.47H102Z"/><path class="cls-3" d="M103.66,28.56l.08.58.12-.52.87-3.06h.49l.84,3.06.13.53.09-.59.68-3h.58l-1.06,4.38H106l-.9-3.19-.07-.33-.07.33L104,29.94h-.52l-1.06-4.38H103Z"/><path class="cls-3" d="M110.47,28.8h-1.83l-.42,1.14h-.59l1.67-4.38h.51l1.67,4.38h-.59Zm-1.66-.48h1.49l-.75-2.05Z"/><path class="cls-3" d="M113.68,28.17h-1v1.77h-.58V25.56h1.45a1.67,1.67,0,0,1,1.14.34,1.19,1.19,0,0,1,.4,1,1.15,1.15,0,0,1-.22.71,1.27,1.27,0,0,1-.62.46l1,1.86v0h-.62Zm-1-.47h.89a1.06,1.06,0,0,0,.69-.22.76.76,0,0,0,.25-.6.82.82,0,0,0-.24-.63,1.1,1.1,0,0,0-.7-.22h-.89Z"/><path class="cls-3" d="M118.35,27.92h-1.9v1.55h2.21v.47h-2.79V25.56h2.76V26h-2.18v1.42h1.9Z"/><path class="cls-3" d="M58.13,36.23V31.85h1.23a2,2,0,0,1,1,.25,1.75,1.75,0,0,1,.68.72,2.44,2.44,0,0,1,.24,1.07v.28a2.37,2.37,0,0,1-.24,1.09,1.63,1.63,0,0,1-.69.71,2,2,0,0,1-1,.26Zm.58-3.91v3.44h.6a1.3,1.3,0,0,0,1-.42,1.71,1.71,0,0,0,.38-1.18V33.9a1.71,1.71,0,0,0-.36-1.16,1.21,1.21,0,0,0-1-.42Z"/><path class="cls-3" d="M64.65,34.2h-1.9v1.56H65v.47H62.17V31.85h2.76v.47H62.75v1.41h1.9Z"/><path class="cls-3" d="M68,31.85l1.43,3.57,1.44-3.57h.74v4.38H71V34.52L71,32.68,69.6,36.23h-.44l-1.44-3.54.06,1.83v1.71H67.2V31.85Z"/><path class="cls-3" d="M75.67,31.85v3a1.37,1.37,0,0,1-.39,1,1.54,1.54,0,0,1-1,.44h-.15a1.65,1.65,0,0,1-1.15-.39,1.38,1.38,0,0,1-.43-1.07v-3h.57v3a1,1,0,0,0,.26.73,1.19,1.19,0,0,0,1.5,0,1,1,0,0,0,.26-.74v-3Zm-1.31-1.18H75l-.8.89h-.45Z"/><path class="cls-3" d="M77.17,35.76h2.07v.47H76.58V31.85h.59Z"/><path class="cls-3" d="M82.1,32.32H80.69v3.91h-.57V32.32H78.71v-.47H82.1Z"/><path class="cls-3" d="M83.37,36.23H82.8V31.85h.57Z"/><path class="cls-3" d="M85,34.51v1.72h-.58V31.85h1.62a1.67,1.67,0,0,1,1.13.36,1.26,1.26,0,0,1,.4,1,1.22,1.22,0,0,1-.4,1,1.67,1.67,0,0,1-1.14.34ZM85,34h1a1,1,0,0,0,.71-.22.8.8,0,0,0,.25-.63.86.86,0,0,0-.25-.63,1,1,0,0,0-.68-.24H85Z"/><path class="cls-3" d="M88.9,35.76H91v.47H88.32V31.85h.58Z"/><path class="cls-3" d="M94.12,35.08H92.28l-.41,1.15h-.6L93,31.85h.5l1.68,4.38h-.59Zm-1.67-.47H94l-.75-2Z"/><path class="cls-3" d="M99.67,35.08H97.83l-.41,1.15h-.6l1.68-4.38H99l1.68,4.38h-.6ZM98,34.61h1.49l-.74-2Z"/><path class="cls-3" d="M104.64,36.23h-.58l-2.21-3.38v3.38h-.58V31.85h.58l2.21,3.39V31.85h.58Z"/><path class="cls-3" d="M109,34.18a2.76,2.76,0,0,1-.22,1.12,1.66,1.66,0,0,1-.61.74,1.71,1.71,0,0,1-.93.25,1.67,1.67,0,0,1-.92-.25,1.71,1.71,0,0,1-.62-.73,2.5,2.5,0,0,1-.23-1.09V33.9a2.59,2.59,0,0,1,.22-1.11,1.71,1.71,0,0,1,.62-.75,1.84,1.84,0,0,1,1.85,0,1.62,1.62,0,0,1,.62.74A2.8,2.8,0,0,1,109,33.9Zm-.58-.28a2,2,0,0,0-.31-1.2,1,1,0,0,0-.88-.42,1,1,0,0,0-.86.42,1.88,1.88,0,0,0-.32,1.16v.32a2,2,0,0,0,.31,1.19,1.12,1.12,0,0,0,1.75,0,1.94,1.94,0,0,0,.31-1.17Z"/><path class="cls-3" d="M112.85,32.32h-1.41v3.91h-.57V32.32h-1.41v-.47h3.39Z"/><path class="cls-3" d="M115.68,35.08h-1.83l-.41,1.15h-.6l1.67-4.38H115l1.68,4.38h-.6ZM114,34.61h1.49l-.74-2Z"/><path class="cls-3" d="M120.51,34.84a1.58,1.58,0,0,1-.51,1.07,1.7,1.7,0,0,1-1.15.38,1.54,1.54,0,0,1-1.25-.56,2.23,2.23,0,0,1-.46-1.49v-.42a2.55,2.55,0,0,1,.21-1.07A1.75,1.75,0,0,1,118,32a1.79,1.79,0,0,1,.93-.24,1.57,1.57,0,0,1,1.12.39,1.61,1.61,0,0,1,.49,1.08h-.58a1.28,1.28,0,0,0-.33-.77,1,1,0,0,0-.7-.23,1,1,0,0,0-.87.41,1.86,1.86,0,0,0-.31,1.16v.43a2,2,0,0,0,.3,1.14.94.94,0,0,0,.83.42,1.09,1.09,0,0,0,.74-.22,1.26,1.26,0,0,0,.34-.76ZM119,36.26l0,.15a.49.49,0,0,1,.46.53.55.55,0,0,1-.24.46,1.16,1.16,0,0,1-.67.17l0-.32a.75.75,0,0,0,.37-.08A.25.25,0,0,0,119,37a.21.21,0,0,0-.1-.2,1,1,0,0,0-.39-.09l.1-.4Z"/><path class="cls-3" d="M123.72,35.08h-1.84l-.41,1.15h-.59l1.67-4.38h.51l1.67,4.38h-.59Zm.16-4.31a.77.77,0,0,1-.18.53.61.61,0,0,1-.46.2.69.69,0,0,1-.22,0,.8.8,0,0,1-.23-.13,1.08,1.08,0,0,0-.21-.11l-.15,0a.24.24,0,0,0-.21.1.32.32,0,0,0-.09.24l-.37,0a.8.8,0,0,1,.18-.54.57.57,0,0,1,.46-.21.58.58,0,0,1,.19,0,1.29,1.29,0,0,1,.23.12,1.28,1.28,0,0,0,.22.12l.17,0a.24.24,0,0,0,.21-.1.36.36,0,0,0,.09-.24Zm-1.82,3.84h1.49l-.75-2Z"/><path class="cls-3" d="M128.7,34.18a2.76,2.76,0,0,1-.22,1.12,1.68,1.68,0,0,1-.62.74,1.65,1.65,0,0,1-.92.25A1.67,1.67,0,0,1,126,36a1.65,1.65,0,0,1-.62-.73,2.5,2.5,0,0,1-.23-1.09V33.9a2.59,2.59,0,0,1,.22-1.11A1.71,1.71,0,0,1,126,32a1.68,1.68,0,0,1,2.47.74,2.8,2.8,0,0,1,.22,1.12Zm-.58-.28a2,2,0,0,0-.31-1.2,1,1,0,0,0-.88-.42,1,1,0,0,0-.86.42,2,2,0,0,0-.33,1.16v.32a2,2,0,0,0,.32,1.19,1,1,0,0,0,.88.43,1,1,0,0,0,.86-.41,1.94,1.94,0,0,0,.32-1.17Z"/><polygon class="cls-4" points="11.96 23.66 23.66 11.96 23.66 0 0 23.66 11.96 23.66"/><polygon class="cls-5" points="0 24.16 6.31 30.47 16.59 30.49 16.52 40.69 23.66 47.82 23.66 24.16 0 24.16"/><polygon class="cls-6" points="31.41 23.66 47.93 23.66 24.27 0 24.27 11.96 31.41 11.96 31.41 23.66"/><polygon class="cls-7" points="31.41 24.16 31.41 40.69 47.93 24.16 31.41 24.16"/><g class="cls-8"><polygon class="cls-9" points="11.96 23.66 23.66 11.96 23.66 0 0 23.66 11.96 23.66"/><polygon class="cls-10" points="0 24.16 6.31 30.47 16.59 30.49 16.52 40.69 23.66 47.82 23.66 24.16 0 24.16"/><polygon class="cls-11" points="31.41 23.66 47.93 23.66 24.27 0 24.27 11.96 31.41 11.96 31.41 23.66"/><polygon class="cls-12" points="31.41 24.16 31.41 40.69 47.93 24.16 31.41 24.16"/></g></g></g></g></svg>