<svg xmlns="http://www.w3.org/2000/svg" xmlns:xlink="http://www.w3.org/1999/xlink" viewBox="0 0 183.66 47.82"><defs><style>.cls-1{isolation:isolate;}.cls-2{fill:#384e55;}.cls-3{fill:#f9b233;}.cls-4{fill:#e94e1b;}.cls-5{fill:#95c11f;}.cls-6{fill:#1d71b8;}.cls-7{opacity:0.3;mix-blend-mode:multiply;}.cls-8{fill:url(#Gradiente_sem_nome);}.cls-9{fill:url(#Gradiente_sem_nome-2);}.cls-10{fill:url(#Gradiente_sem_nome-3);}.cls-11{fill:url(#Gradiente_sem_nome-4);}</style><linearGradient id="Gradiente_sem_nome" x1="17.53" y1="11.95" x2="0.21" y2="19.59" gradientUnits="userSpaceOnUse"><stop offset="0" stop-color="#fff"/><stop offset="1"/></linearGradient><linearGradient id="Gradiente_sem_nome-2" x1="14.22" y1="32.7" x2="18.67" y2="48.57" xlink:href="#Gradiente_sem_nome"/><linearGradient id="Gradiente_sem_nome-3" x1="31.95" y1="14.44" x2="47.14" y2="24.12" xlink:href="#Gradiente_sem_nome"/><linearGradient id="Gradiente_sem_nome-4" x1="36.72" y1="28.59" x2="29.95" y2="38.75" xlink:href="#Gradiente_sem_nome"/></defs><g class="cls-1"><g id="Camada_2" data-name="Camada 2"><g id="Camada_1-2" data-name="Camada 1"><path class="cls-2" d="M64.39,27.73V35.8H58.66V12h9.49A11,11,0,0,1,73,13a7.56,7.56,0,0,1,3.25,2.86,7.8,7.8,0,0,1,1.15,4.21,6.88,6.88,0,0,1-2.49,5.56,10.32,10.32,0,0,1-6.83,2.08Zm0-4.42h3.76a3.54,3.54,0,0,0,2.54-.84,3.09,3.09,0,0,0,.87-2.35,3.81,3.81,0,0,0-.9-2.66,3.15,3.15,0,0,0-2.45-1H64.39Z"/><path class="cls-2" d="M89.27,27.39H86.16V35.8H80.43V12h9.36A10.38,10.38,0,0,1,96.4,13.9a6.35,6.35,0,0,1,2.39,5.3,7.73,7.73,0,0,1-1,4.11A7.05,7.05,0,0,1,94.64,26l5,9.61v.24H93.46ZM86.16,23h3.63a3.27,3.27,0,0,0,2.46-.86,3.31,3.31,0,0,0,.82-2.4,3.36,3.36,0,0,0-.83-2.41,3.21,3.21,0,0,0-2.45-.88H86.16Z"/><path class="cls-2" d="M108.36,35.8h-5.72V12h5.72Z"/><path class="cls-2" d="M124.61,29.48a2.37,2.37,0,0,0-.89-2,10.86,10.86,0,0,0-3.13-1.45,29.8,29.8,0,0,1-3.66-1.46q-4.62-2.26-4.62-6.24a5.62,5.62,0,0,1,1.15-3.48,7.48,7.48,0,0,1,3.26-2.36,12.75,12.75,0,0,1,4.74-.84,11.11,11.11,0,0,1,4.6.92,7.34,7.34,0,0,1,3.16,2.6,6.83,6.83,0,0,1,1.12,3.87h-5.71a2.89,2.89,0,0,0-.89-2.26,3.5,3.5,0,0,0-2.41-.8,3.94,3.94,0,0,0-2.43.68,2.09,2.09,0,0,0-.89,1.72,2.11,2.11,0,0,0,1,1.66,12.31,12.31,0,0,0,3.45,1.54,20.82,20.82,0,0,1,4,1.7q3.86,2.22,3.85,6.13a5.8,5.8,0,0,1-2.35,4.9,10.51,10.51,0,0,1-6.45,1.78,12.78,12.78,0,0,1-5.23-1,7.87,7.87,0,0,1-3.53-2.84,7.4,7.4,0,0,1-1.19-4.16h5.75a3.65,3.65,0,0,0,1,2.82,4.7,4.7,0,0,0,3.21.91,3.69,3.69,0,0,0,2.25-.62A2,2,0,0,0,124.61,29.48Z"/><path class="cls-2" d="M140.81,12l5.31,16.55L151.41,12H159V35.8h-5.75V30.25l.56-11.37L148,35.8h-3.79l-5.77-16.94L139,30.25V35.8h-5.74V12Z"/><path class="cls-2" d="M176.11,31.36h-7.86l-1.37,4.44h-6.12L169.48,12h5.39l8.79,23.78H177.5Zm-6.48-4.43h5.11l-2.57-8.25Z"/><polygon class="cls-3" points="11.96 23.66 23.66 11.96 23.66 0 0 23.66 11.96 23.66"/><polygon class="cls-4" points="0 24.16 6.31 30.47 16.59 30.49 16.52 40.69 23.66 47.82 23.66 24.16 0 24.16"/><polygon class="cls-5" points="31.41 23.66 47.93 23.66 24.27 0 24.27 11.96 31.41 11.96 31.41 23.66"/><polygon class="cls-6" points="31.41 24.16 31.41 40.69 47.93 24.16 31.41 24.16"/><g class="cls-7"><polygon class="cls-8" points="11.96 23.66 23.66 11.96 23.66 0 0 23.66 11.96 23.66"/><polygon class="cls-9" points="0 24.16 6.31 30.47 16.59 30.49 16.52 40.69 23.66 47.82 23.66 24.16 0 24.16"/><polygon class="cls-10" points="31.41 23.66 47.93 23.66 24.27 0 24.27 11.96 31.41 11.96 31.41 23.66"/><polygon class="cls-11" points="31.41 24.16 31.41 40.69 47.93 24.16 31.41 24.16"/></g></g></g></g></svg>