<svg xmlns="http://www.w3.org/2000/svg" xmlns:xlink="http://www.w3.org/1999/xlink" viewBox="0 0 127.45 47.82"><defs><style>.cls-1{isolation:isolate;}.cls-2{fill:#f9b233;}.cls-3{fill:#e94e1b;}.cls-4{fill:#95c11f;}.cls-5{fill:#1d71b8;}.cls-6{opacity:0.3;mix-blend-mode:multiply;}.cls-7{fill:url(#Gradiente_sem_nome);}.cls-8{fill:url(#Gradiente_sem_nome-2);}.cls-9{fill:url(#Gradiente_sem_nome-3);}.cls-10{fill:url(#Gradiente_sem_nome-4);}.cls-11{fill:#cde3e8;}.cls-12{fill:#8b9aa0;}</style><linearGradient id="Gradiente_sem_nome" x1="17.53" y1="11.95" x2="0.21" y2="19.59" gradientUnits="userSpaceOnUse"><stop offset="0" stop-color="#fff"/><stop offset="1"/></linearGradient><linearGradient id="Gradiente_sem_nome-2" x1="14.22" y1="32.7" x2="18.67" y2="48.57" xlink:href="#Gradiente_sem_nome"/><linearGradient id="Gradiente_sem_nome-3" x1="31.95" y1="14.44" x2="47.14" y2="24.12" xlink:href="#Gradiente_sem_nome"/><linearGradient id="Gradiente_sem_nome-4" x1="36.72" y1="28.59" x2="29.95" y2="38.75" xlink:href="#Gradiente_sem_nome"/></defs><g class="cls-1"><g id="Camada_2" data-name="Camada 2"><g id="Camada_1-2" data-name="Camada 1"><polygon class="cls-2" points="11.96 23.66 23.66 11.96 23.66 0 0 23.66 11.96 23.66"/><polygon class="cls-3" points="0 24.16 6.31 30.47 16.59 30.49 16.52 40.69 23.66 47.82 23.66 24.16 0 24.16"/><polygon class="cls-4" points="31.41 23.66 47.93 23.66 24.27 0 24.27 11.96 31.41 11.96 31.41 23.66"/><polygon class="cls-5" points="31.41 24.16 31.41 40.69 47.93 24.16 31.41 24.16"/><g class="cls-6"><polygon class="cls-7" points="11.96 23.66 23.66 11.96 23.66 0 0 23.66 11.96 23.66"/><polygon class="cls-8" points="0 24.16 6.31 30.47 16.59 30.49 16.52 40.69 23.66 47.82 23.66 24.16 0 24.16"/><polygon class="cls-9" points="31.41 23.66 47.93 23.66 24.27 0 24.27 11.96 31.41 11.96 31.41 23.66"/><polygon class="cls-10" points="31.41 24.16 31.41 40.69 47.93 24.16 31.41 24.16"/></g><path class="cls-11" d="M60.34,18.7V23h-3V10.43h5a5.85,5.85,0,0,1,2.54.52,4,4,0,0,1,1.71,1.51,4.07,4.07,0,0,1,.61,2.22,3.65,3.65,0,0,1-1.31,2.93,5.47,5.47,0,0,1-3.6,1.09Zm0-2.33h2a1.9,1.9,0,0,0,1.34-.44,1.64,1.64,0,0,0,.46-1.24,2,2,0,0,0-.48-1.4,1.64,1.64,0,0,0-1.29-.53h-2Z"/><path class="cls-11" d="M73.44,18.52H71.81V23h-3V10.43h4.93a5.5,5.5,0,0,1,3.48,1,3.35,3.35,0,0,1,1.26,2.8,4.07,4.07,0,0,1-.53,2.16,3.76,3.76,0,0,1-1.66,1.4l2.62,5.05V23H75.65ZM71.81,16.2h1.91A1.71,1.71,0,0,0,75,15.75a1.78,1.78,0,0,0,.44-1.27A1.78,1.78,0,0,0,75,13.21a1.68,1.68,0,0,0-1.29-.46H71.81Z"/><path class="cls-11" d="M83.5,23h-3V10.43h3Z"/><path class="cls-11" d="M92.06,19.62a1.22,1.22,0,0,0-.47-1A5.87,5.87,0,0,0,90,17.82,14.67,14.67,0,0,1,88,17.06c-1.63-.8-2.44-1.89-2.44-3.29a2.9,2.9,0,0,1,.61-1.83,3.8,3.8,0,0,1,1.72-1.24,6.57,6.57,0,0,1,2.49-.45,5.69,5.69,0,0,1,2.42.49,3.78,3.78,0,0,1,1.67,1.37,3.61,3.61,0,0,1,.59,2h-3A1.54,1.54,0,0,0,91.6,13a1.82,1.82,0,0,0-1.27-.42,2.07,2.07,0,0,0-1.28.36,1.06,1.06,0,0,0,0,1.78,6.66,6.66,0,0,0,1.82.81,11.55,11.55,0,0,1,2.13.9,3.59,3.59,0,0,1,2,3.23,3.06,3.06,0,0,1-1.24,2.58,5.54,5.54,0,0,1-3.4.93,6.78,6.78,0,0,1-2.75-.54,4.16,4.16,0,0,1-1.86-1.5,3.86,3.86,0,0,1-.63-2.19h3a2,2,0,0,0,.52,1.49,2.51,2.51,0,0,0,1.69.47,1.93,1.93,0,0,0,1.19-.32A1.06,1.06,0,0,0,92.06,19.62Z"/><path class="cls-11" d="M100.6,10.43l2.79,8.71,2.79-8.71h4V23h-3V20l.29-6-3,8.91h-2l-3-8.92.29,6V23h-3V10.43Z"/><path class="cls-11" d="M119.19,20.61h-4.14L114.33,23H111.1l4.6-12.52h2.84L123.16,23h-3.24Zm-3.42-2.33h2.7l-1.35-4.34Z"/><path class="cls-12" d="M57.46,28.23v1.71h-.58V25.56H58.5a1.62,1.62,0,0,1,1.13.37,1.24,1.24,0,0,1,.4,1,1.2,1.2,0,0,1-.4,1,1.67,1.67,0,0,1-1.14.35Zm0-.47h1a1.08,1.08,0,0,0,.71-.22.92.92,0,0,0,0-1.26,1,1,0,0,0-.68-.25H57.46Z"/><path class="cls-12" d="M62.38,28.17h-1v1.77h-.58V25.56h1.45a1.71,1.71,0,0,1,1.14.34,1.19,1.19,0,0,1,.4,1,1.22,1.22,0,0,1-.22.71,1.32,1.32,0,0,1-.62.46l1,1.86v0h-.62Zm-1-.47h.89a1,1,0,0,0,.68-.22.76.76,0,0,0,.26-.6.79.79,0,0,0-.25-.63,1.08,1.08,0,0,0-.7-.22h-.88Z"/><path class="cls-12" d="M65.19,29.94h-.58V25.56h.58Z"/><path class="cls-12" d="M67,25.56l1.44,3.58,1.43-3.58h.75v4.38H70v-1.7l0-1.84-1.43,3.54H68.2L66.77,26.4l0,1.84v1.7h-.57V25.56Z"/><path class="cls-12" d="M74.11,27.92h-1.9v1.55h2.2v.47H71.63V25.56h2.75V26H72.21v1.42h1.9Z"/><path class="cls-12" d="M75.75,29.94h-.57V25.56h.57Z"/><path class="cls-12" d="M78.42,28.17h-1v1.77h-.58V25.56h1.45a1.71,1.71,0,0,1,1.14.34,1.34,1.34,0,0,1,.18,1.69,1.32,1.32,0,0,1-.62.46l1,1.86v0h-.62Zm-1-.47h.89a1,1,0,0,0,.68-.22.76.76,0,0,0,.26-.6.79.79,0,0,0-.25-.63,1.08,1.08,0,0,0-.7-.22h-.88Z"/><path class="cls-12" d="M84,27.89A2.65,2.65,0,0,1,83.76,29a1.64,1.64,0,0,1-.61.73A1.69,1.69,0,0,1,80.68,29a2.61,2.61,0,0,1-.23-1.09v-.31a2.8,2.8,0,0,1,.22-1.12,1.7,1.7,0,0,1,.63-.74,1.76,1.76,0,0,1,1.84,0,1.55,1.55,0,0,1,.62.73A2.65,2.65,0,0,1,84,27.62Zm-.57-.28a2,2,0,0,0-.32-1.2,1.13,1.13,0,0,0-1.74,0A2,2,0,0,0,81,27.57v.32a2,2,0,0,0,.32,1.19,1,1,0,0,0,.87.43,1,1,0,0,0,.87-.4,2.06,2.06,0,0,0,.32-1.17Z"/><path class="cls-12" d="M87.67,28a2.83,2.83,0,0,1-1.09-.52,1,1,0,0,1-.34-.77,1.06,1.06,0,0,1,.42-.86,1.6,1.6,0,0,1,1.07-.34,1.76,1.76,0,0,1,.81.18,1.23,1.23,0,0,1,.55.48,1.21,1.21,0,0,1,.19.67H88.7a.79.79,0,0,0-.25-.63,1.05,1.05,0,0,0-.72-.23,1.08,1.08,0,0,0-.66.19.64.64,0,0,0-.24.53.55.55,0,0,0,.23.45,2.25,2.25,0,0,0,.77.34,3.18,3.18,0,0,1,.85.34,1.28,1.28,0,0,1,.46.43,1.09,1.09,0,0,1,.15.58,1,1,0,0,1-.41.85,1.75,1.75,0,0,1-1.11.33,2,2,0,0,1-.85-.18,1.36,1.36,0,0,1-.6-.47,1.17,1.17,0,0,1-.21-.69h.58a.73.73,0,0,0,.29.63,1.22,1.22,0,0,0,.79.23,1.19,1.19,0,0,0,.7-.18.63.63,0,0,0,.24-.51.57.57,0,0,0-.23-.5A2.65,2.65,0,0,0,87.67,28Z"/><path class="cls-12" d="M93.4,27.89A2.81,2.81,0,0,1,93.19,29a1.71,1.71,0,0,1-2.46.73,1.59,1.59,0,0,1-.62-.73,2.47,2.47,0,0,1-.23-1.09v-.31a2.63,2.63,0,0,1,.22-1.12,1.62,1.62,0,0,1,.62-.74,1.68,1.68,0,0,1,.92-.26,1.71,1.71,0,0,1,.93.26,1.6,1.6,0,0,1,.62.73,2.81,2.81,0,0,1,.21,1.13Zm-.57-.28a2,2,0,0,0-.31-1.2,1.05,1.05,0,0,0-.88-.41,1,1,0,0,0-.86.41,2,2,0,0,0-.33,1.16v.32a2,2,0,0,0,.32,1.19,1,1,0,0,0,.88.43,1,1,0,0,0,.86-.4,2,2,0,0,0,.32-1.17Z"/><path class="cls-12" d="M96.69,28H94.85v1.93h-.58V25.56H97V26H94.85v1.51h1.84Z"/><path class="cls-12" d="M100.77,26H99.36v3.91h-.57V26H97.38v-.47h3.39Z"/><path class="cls-12" d="M102.41,28.56l.08.58.13-.52.87-3.06H104l.85,3.06.12.53.09-.59.68-3h.58l-1.06,4.38h-.53l-.9-3.19-.07-.33-.07.33-.93,3.19h-.53l-1.06-4.38h.58Z"/><path class="cls-12" d="M109.23,28.8h-1.84L107,29.94h-.6l1.68-4.38h.5l1.68,4.38h-.59Zm-1.67-.48h1.5l-.75-2.05Z"/><path class="cls-12" d="M112.44,28.17h-1v1.77h-.58V25.56h1.45a1.71,1.71,0,0,1,1.14.34,1.22,1.22,0,0,1,.4,1,1.16,1.16,0,0,1-.23.71,1.24,1.24,0,0,1-.61.46l1,1.86v0h-.62Zm-1-.47h.89a1,1,0,0,0,.68-.22.76.76,0,0,0,.25-.6.82.82,0,0,0-.24-.63,1.08,1.08,0,0,0-.7-.22h-.88Z"/><path class="cls-12" d="M117.1,27.92h-1.9v1.55h2.21v.47h-2.78V25.56h2.75V26H115.2v1.42h1.9Z"/><path class="cls-12" d="M56.88,36.23V31.85h1.24a2,2,0,0,1,1,.25,1.75,1.75,0,0,1,.68.72,2.31,2.31,0,0,1,.24,1.07v.28a2.37,2.37,0,0,1-.24,1.09,1.61,1.61,0,0,1-.68.71,2.06,2.06,0,0,1-1,.26Zm.58-3.91v3.44h.61a1.33,1.33,0,0,0,1-.42,1.7,1.7,0,0,0,.37-1.18V33.9a1.76,1.76,0,0,0-.35-1.16,1.23,1.23,0,0,0-1-.42Z"/><path class="cls-12" d="M63.4,34.2H61.5v1.56h2.21v.47H60.93V31.85h2.75v.47H61.5v1.41h1.9Z"/><path class="cls-12" d="M66.7,31.85l1.44,3.57,1.43-3.57h.75v4.38h-.58V34.52l.06-1.84-1.44,3.55h-.45l-1.43-3.54,0,1.83v1.71H66V31.85Z"/><path class="cls-12" d="M74.43,31.85v3a1.46,1.46,0,0,1-.39,1,1.54,1.54,0,0,1-1.05.44h-.16a1.61,1.61,0,0,1-1.14-.39,1.39,1.39,0,0,1-.44-1.07v-3h.57v3a.93.93,0,0,0,1,1,1,1,0,0,0,.75-.26,1,1,0,0,0,.27-.74v-3Zm-1.32-1.18h.68l-.81.89h-.45Z"/><path class="cls-12" d="M75.92,35.76H78v.47H75.34V31.85h.58Z"/><path class="cls-12" d="M80.86,32.32H79.45v3.91h-.58V32.32h-1.4v-.47h3.39Z"/><path class="cls-12" d="M82.13,36.23h-.58V31.85h.58Z"/><path class="cls-12" d="M83.76,34.51v1.72h-.57V31.85H84.8a1.65,1.65,0,0,1,1.13.36,1.27,1.27,0,0,1,.41,1,1.25,1.25,0,0,1-.4,1,1.71,1.71,0,0,1-1.14.34Zm0-.47h1a1,1,0,0,0,.71-.22.77.77,0,0,0,.25-.63.82.82,0,0,0-.25-.63,1,1,0,0,0-.67-.24H83.76Z"/><path class="cls-12" d="M87.66,35.76h2.07v.47H87.08V31.85h.58Z"/><path class="cls-12" d="M92.87,35.08H91l-.41,1.15H90l1.67-4.38h.51l1.67,4.38h-.59Zm-1.66-.47H92.7l-.75-2Z"/><path class="cls-12" d="M98.42,35.08H96.58l-.41,1.15h-.59l1.67-4.38h.51l1.67,4.38h-.59Zm-1.66-.47h1.49l-.75-2Z"/><path class="cls-12" d="M103.39,36.23h-.58l-2.21-3.38v3.38H100V31.85h.58l2.22,3.39V31.85h.57Z"/><path class="cls-12" d="M107.79,34.18a2.6,2.6,0,0,1-.22,1.12A1.66,1.66,0,0,1,107,36a1.84,1.84,0,0,1-1.85,0,1.78,1.78,0,0,1-.62-.73,2.65,2.65,0,0,1-.23-1.09V33.9a2.75,2.75,0,0,1,.22-1.11,1.73,1.73,0,0,1,.63-.75,1.65,1.65,0,0,1,.92-.25A1.71,1.71,0,0,1,107,32a1.66,1.66,0,0,1,.61.74,2.63,2.63,0,0,1,.22,1.12Zm-.57-.28a2,2,0,0,0-.32-1.2,1.11,1.11,0,0,0-1.74,0,2,2,0,0,0-.32,1.16v.32a2,2,0,0,0,.32,1.19,1,1,0,0,0,.87.43,1,1,0,0,0,.87-.41,2,2,0,0,0,.32-1.17Z"/><path class="cls-12" d="M111.61,32.32H110.2v3.91h-.58V32.32h-1.4v-.47h3.39Z"/><path class="cls-12" d="M114.44,35.08H112.6l-.41,1.15h-.6l1.68-4.38h.5l1.68,4.38h-.59Zm-1.66-.47h1.49l-.75-2Z"/><path class="cls-12" d="M119.27,34.84a1.63,1.63,0,0,1-.52,1.07,1.7,1.7,0,0,1-1.15.38,1.52,1.52,0,0,1-1.24-.56,2.24,2.24,0,0,1-.47-1.49v-.42a2.41,2.41,0,0,1,.22-1.07,1.62,1.62,0,0,1,.62-.72,1.73,1.73,0,0,1,.92-.24,1.62,1.62,0,0,1,1.13.39,1.66,1.66,0,0,1,.49,1.08h-.59a1.28,1.28,0,0,0-.32-.77,1,1,0,0,0-.71-.23,1,1,0,0,0-.86.41,1.86,1.86,0,0,0-.32,1.16v.43a2,2,0,0,0,.3,1.14,1,1,0,0,0,.83.42,1.09,1.09,0,0,0,.74-.22,1.2,1.2,0,0,0,.34-.76Zm-1.48,1.42,0,.15a.5.5,0,0,1,.46.53.55.55,0,0,1-.24.46,1.18,1.18,0,0,1-.67.17l0-.32a.73.73,0,0,0,.37-.08.25.25,0,0,0,.13-.22.23.23,0,0,0-.09-.2,1.11,1.11,0,0,0-.39-.09l.09-.4Z"/><path class="cls-12" d="M122.48,35.08h-1.84l-.41,1.15h-.6l1.67-4.38h.51l1.68,4.38h-.6Zm.16-4.31a.73.73,0,0,1-.19.53.6.6,0,0,1-.46.2.66.66,0,0,1-.21,0,1,1,0,0,1-.24-.13,1.08,1.08,0,0,0-.21-.11l-.15,0a.26.26,0,0,0-.21.1.32.32,0,0,0-.09.24l-.37,0a.8.8,0,0,1,.18-.54.59.59,0,0,1,.46-.21.54.54,0,0,1,.19,0,1,1,0,0,1,.23.12l.22.12.17,0a.27.27,0,0,0,.22-.1.35.35,0,0,0,.08-.24Zm-1.83,3.84h1.49l-.74-2Z"/><path class="cls-12" d="M127.45,34.18a2.6,2.6,0,0,1-.22,1.12,1.66,1.66,0,0,1-.61.74,1.84,1.84,0,0,1-1.85,0,1.78,1.78,0,0,1-.62-.73,2.65,2.65,0,0,1-.23-1.09V33.9a2.75,2.75,0,0,1,.22-1.11,1.73,1.73,0,0,1,.63-.75,1.82,1.82,0,0,1,1.84,0,1.62,1.62,0,0,1,.62.74,2.63,2.63,0,0,1,.22,1.12Zm-.58-.28a2,2,0,0,0-.31-1.2,1.11,1.11,0,0,0-1.74,0,2,2,0,0,0-.32,1.16v.32a1.93,1.93,0,0,0,.32,1.19,1,1,0,0,0,.87.43,1,1,0,0,0,.87-.41,1.94,1.94,0,0,0,.31-1.17Z"/></g></g></g></svg>